<svg xmlns="http://www.w3.org/2000/svg" width="18.669" height="23" viewBox="0 0 18.669 23">
  <path id="Icon_simple-apple" data-name="Icon simple-apple" d="M8,22.555a5.151,5.151,0,0,1-1.191-1.1,14.773,14.773,0,0,1-1.019-1.393,13.471,13.471,0,0,1-1.7-3.482,13.1,13.1,0,0,1-.712-4.163A7.739,7.739,0,0,1,4.33,8.5a5.536,5.536,0,0,1,2.011-2.09,5.363,5.363,0,0,1,2.72-.8,4.491,4.491,0,0,1,1.082.144c.278.077.613.2,1.025.354.527.2.814.326.91.354a2.244,2.244,0,0,0,.766.163,2.292,2.292,0,0,0,.618-.125c.139-.048.4-.134.776-.3.37-.134.663-.249.9-.335a7.993,7.993,0,0,1,1.006-.249,4.747,4.747,0,0,1,1.1-.048,6.522,6.522,0,0,1,1.858.4A5.012,5.012,0,0,1,21.45,7.845a4.714,4.714,0,0,0-.694.527,5.864,5.864,0,0,0-1.178,1.441,4.884,4.884,0,0,0-.617,2.414,4.943,4.943,0,0,0,.8,2.739,5.106,5.106,0,0,0,1.469,1.471,3.765,3.765,0,0,0,.8.431c-.115.359-.241.709-.388,1.054a13.59,13.59,0,0,1-1.2,2.212c-.414.6-.739,1.054-.987,1.35a5.34,5.34,0,0,1-1.13,1.051,2.516,2.516,0,0,1-1.391.418,3.083,3.083,0,0,1-.99-.122c-.278-.091-.552-.193-.82-.309a6.647,6.647,0,0,0-.867-.326,4.328,4.328,0,0,0-1.115-.141,4.47,4.47,0,0,0-1.111.139,6.9,6.9,0,0,0-.869.311c-.4.168-.666.278-.819.326A4.282,4.282,0,0,1,9.408,23a2.634,2.634,0,0,1-1.423-.431Zm6.565-17.68a3.567,3.567,0,0,1-1.89.418,3.841,3.841,0,0,1,.259-1.951,5.274,5.274,0,0,1,.958-1.609A5.18,5.18,0,0,1,15.45.525,4.441,4.441,0,0,1,17.26,0a4.354,4.354,0,0,1-.239,1.983,5.687,5.687,0,0,1-.958,1.686,4.831,4.831,0,0,1-1.519,1.207Z" transform="translate(-3.37 0.001)" fill="#fff"/>
</svg>
