<svg xmlns="http://www.w3.org/2000/svg" width="13.201" height="13.224" viewBox="0 0 13.201 13.224">
  <g id="Icon_feather-phone-forwarded" data-name="Icon feather-phone-forwarded" transform="translate(-2.417 -1.338)" opacity="0.61">
    <path id="Path_9057" data-name="Path 9057" d="M14.867,11.777v1.765a1.177,1.177,0,0,1-1.282,1.177,11.642,11.642,0,0,1-5.077-1.806,11.471,11.471,0,0,1-3.53-3.53,11.642,11.642,0,0,1-1.806-5.1A1.177,1.177,0,0,1,4.343,3H6.108A1.177,1.177,0,0,1,7.285,4.012,7.553,7.553,0,0,0,7.7,5.665a1.177,1.177,0,0,1-.265,1.241l-.747.747a9.412,9.412,0,0,0,3.53,3.53l.747-.747a1.177,1.177,0,0,1,1.241-.265,7.553,7.553,0,0,0,1.653.412A1.177,1.177,0,0,1,14.867,11.777Z" transform="translate(0 -0.912)" fill="none" stroke="#fff" stroke-linecap="round" stroke-linejoin="round" stroke-width="1.5"/>
  </g>
</svg>
