<svg xmlns="http://www.w3.org/2000/svg" width="52" height="52" viewBox="0 0 52 52">
  <g id="Group_3271" data-name="Group 3271" transform="translate(-524 -2574)">
    <g id="Ellipse_9" data-name="Ellipse 9" transform="translate(524 2574)" fill="none" stroke="#ff6330" stroke-width="1">
      <circle cx="26" cy="26" r="26" stroke="none"/>
      <circle cx="26" cy="26" r="25.5" fill="none"/>
    </g>
    <g id="Group_2408" data-name="Group 2408" transform="translate(77 2476)">
      <path id="Path_7989" data-name="Path 7989" d="M538.676,111a7.551,7.551,0,0,1-.1,9.032c-.3.413-.634.8-.949,1.2a.163.163,0,0,0-.008.115c.16.807.322,1.613.481,2.411a8.814,8.814,0,0,1,1.268.09,3.724,3.724,0,0,1,1.893,5.811,14.729,14.729,0,0,1-1.392,1.262.756.756,0,0,0-.24.544c.152.972.371,1.933.532,2.9a2.69,2.69,0,0,1-1.474,3,2.978,2.978,0,0,1-3.5-.752,1.951,1.951,0,0,1-.442-1.818,1.5,1.5,0,0,1,1.7-1.2,1.355,1.355,0,0,1,1.236,1.352,1.4,1.4,0,0,1-1.262,1.518l-.223.047a1.316,1.316,0,0,0,1.464.62,2.322,2.322,0,0,0,1.972-2.648c-.139-1.045-.382-2.077-.546-2.938a15.49,15.49,0,0,1-2.938-.382,5.4,5.4,0,0,1-2.8-7.886,28.125,28.125,0,0,1,2.977-3.726.9.9,0,0,0,.26-.925,8.494,8.494,0,0,1,.211-5.566,12.679,12.679,0,0,1,1.4-2.07Zm-1.089,18.575a2.188,2.188,0,0,1-1.874-1.415,3.169,3.169,0,0,1,1.491-3.985c.224-.123.47-.184.387-.54-.146-.625-.259-1.257-.387-1.886l-.161-.1a32.282,32.282,0,0,0-2.42,2.851,5.565,5.565,0,0,0-.831,2.293,3.883,3.883,0,0,0,5.144,3.942l-.976-5.067a2.091,2.091,0,0,0-1.494,1.508A2.2,2.2,0,0,0,537.587,129.575Zm-.275-10.766a17.113,17.113,0,0,0,1.551-2.175,8.107,8.107,0,0,0,.624-2.229.868.868,0,0,0-.575-1.045c-.477-.154-.783.171-1.033.506A5.144,5.144,0,0,0,537.312,118.808Zm1.152,6.808.975,4.94a2.66,2.66,0,0,0,1.469-2.965A2.484,2.484,0,0,0,538.464,125.617Z" transform="translate(-63.986 0)" fill="#ff6330" stroke="#ff6330" stroke-width="0.5"/>
      <path id="Path_7990" data-name="Path 7990" d="M460,138.406a2.729,2.729,0,0,1,.714-.2c3.039-.014,6.078-.009,9.118-.008.076,0,.152.014.282.028l-.055.8a4.593,4.593,0,0,1-.463.048c-2.941,0-5.881.01-8.822-.011a2.434,2.434,0,0,1-.773-.295Z" transform="translate(0 -23.97)" fill="#ff6330" stroke="#ff6330" stroke-width="0.5"/>
      <path id="Path_7991" data-name="Path 7991" d="M460,165.853c.183-.1.365-.274.549-.276,3.152-.017,6.3-.012,9.5-.012l.164.867h-1.581c-2.6,0-5.2.007-7.807-.01a3.451,3.451,0,0,1-.826-.213Z" transform="translate(0 -48.101)" fill="#ff6330" stroke="#ff6330" stroke-width="0.5"/>
      <path id="Path_7992" data-name="Path 7992" d="M460,301.969c.184-.092.368-.264.553-.265,2.684-.015,5.369-.006,8.053,0a.552.552,0,0,1,.141.051l-.25.784c-2.652,0-5.276,0-7.9-.009a2.012,2.012,0,0,1-.6-.2Z" transform="translate(0 -168.104)" fill="#ff6330" stroke="#ff6330" stroke-width="0.5"/>
      <path id="Path_7993" data-name="Path 7993" d="M460,193.113a1.667,1.667,0,0,1,.567-.242c2.54-.016,5.08-.011,7.664-.011a1.118,1.118,0,0,1-1.212.865c-2.067-.049-4.137-.009-6.205-.028a3.217,3.217,0,0,1-.814-.228Z" transform="translate(0 -72.162)" fill="#ff6330" stroke="#ff6330" stroke-width="0.5"/>
      <path id="Path_7994" data-name="Path 7994" d="M460,274.516c.234-.108.468-.308.7-.311,2.169-.024,4.339-.042,6.507.014.341.009.673.394,1.009.6l-.08.18c-.165.013-.329.038-.494.038-2.268,0-4.536.012-6.8-.011a2.938,2.938,0,0,1-.842-.278Z" transform="translate(0 -143.85)" fill="#ff6330" stroke="#ff6330" stroke-width="0.5"/>
      <path id="Path_7995" data-name="Path 7995" d="M460,220.164c.17-.082.339-.234.509-.235,2.025-.016,4.05-.011,6.116-.011l-.167.848h-1.521c-1.4,0-2.8.012-4.192-.011a2.734,2.734,0,0,1-.746-.236Z" transform="translate(0 -96.014)" fill="#ff6330" stroke="#ff6330" stroke-width="0.5"/>
      <path id="Path_7996" data-name="Path 7996" d="M460,247.283a1.558,1.558,0,0,1,.524-.22c1.949-.016,3.9-.01,5.882-.01l.16.844h-1.748c-1.36,0-2.719.013-4.079-.012a2.611,2.611,0,0,1-.739-.247Z" transform="translate(0 -119.934)" fill="#ff6330" stroke="#ff6330" stroke-width="0.5"/>
      <path id="Path_7997" data-name="Path 7997" d="M598.332,193.58c.2-.706.635-.851,1.269-.843,2.7.034,5.406.014,8.109.015a1.36,1.36,0,0,1,.526.029.549.549,0,0,1,.3.37.6.6,0,0,1-.267.4c-.095.069-.265.044-.4.044q-4.617,0-9.234,0C598.542,193.6,598.449,193.587,598.332,193.58Z" transform="translate(-121.944 -72.053)" fill="#ff6330" stroke="#ff6330" stroke-width="0.5"/>
      <path id="Path_7998" data-name="Path 7998" d="M615.151,138.926V138.1h.707q3.315,0,6.63,0a1.162,1.162,0,0,1,.523.033.733.733,0,0,1,.358.451c.014.11-.224.265-.367.377-.05.04-.153.015-.232.015q-3.64,0-7.281,0A2.617,2.617,0,0,1,615.151,138.926Z" transform="translate(-136.77 -23.881)" fill="#ff6330" stroke="#ff6330" stroke-width="0.5"/>
      <path id="Path_7999" data-name="Path 7999" d="M612.245,166.282c-.028-.672.211-.9.866-.886,2.27.044,4.541.017,6.811.017a1.145,1.145,0,0,1,.468.02,2.239,2.239,0,0,1,.446.387c-.15.152-.294.309-.452.452-.034.03-.115.01-.174.01Z" transform="translate(-134.207 -47.951)" fill="#ff6330" stroke="#ff6330" stroke-width="0.5"/>
      <path id="Path_8000" data-name="Path 8000" d="M615.174,302.424l-.138-.805c.186-.015.352-.04.519-.04q3.485,0,6.971,0c.118,0,.259-.033.349.019.153.088.4.255.38.348-.031.169-.216.318-.357.454-.043.042-.151.024-.23.024Z" transform="translate(-136.669 -167.991)" fill="#ff6330" stroke="#ff6330" stroke-width="0.5"/>
      <path id="Path_8001" data-name="Path 8001" d="M621.135,274.99a1.068,1.068,0,0,1,1.205-.868c1.814.043,3.63.015,5.445.016.158,0,.345-.044.466.025a2.034,2.034,0,0,1,.407.423c-.145.133-.281.368-.435.38-.608.046-1.222.025-1.833.025Z" transform="translate(-142.045 -143.796)" fill="#ff6330" stroke="#ff6330" stroke-width="0.5"/>
      <path id="Path_8002" data-name="Path 8002" d="M621.892,219.918c2.284,0,4.569-.01,6.853.02.168,0,.333.283.5.435-.168.131-.334.373-.5.375-2.052.026-4.106.043-6.157-.013-.271-.008-.531-.437-.8-.671Z" transform="translate(-142.622 -96.013)" fill="#ff6330" stroke="#ff6330" stroke-width="0.5"/>
      <path id="Path_8003" data-name="Path 8003" d="M631.168,247.882v-.845h.993q2.331,0,4.662,0c.335,0,.682.021.667.457-.014.407-.358.391-.663.39C634.961,247.881,633.095,247.882,631.168,247.882Z" transform="translate(-150.89 -119.92)" fill="#ff6330" stroke="#ff6330" stroke-width="0.5"/>
    </g>
  </g>
</svg>
