<svg xmlns="http://www.w3.org/2000/svg" width="52" height="52" viewBox="0 0 52 52">
  <g id="Group_3273" data-name="Group 3273" transform="translate(-1572 -2426)">
    <g id="Ellipse_11" data-name="Ellipse 11" transform="translate(1572 2426)" fill="none" stroke="#ff6330" stroke-width="1">
      <circle cx="26" cy="26" r="26" stroke="none"/>
      <circle cx="26" cy="26" r="25.5" fill="none"/>
    </g>
    <g id="Group_2409" data-name="Group 2409" transform="translate(1052.771 2316.14)">
      <path id="Path_8009" data-name="Path 8009" d="M555.9,162.473a12.325,12.325,0,0,1,1.274-.229,1.584,1.584,0,0,1,1.643.924,1.517,1.517,0,0,1-.313,1.807,4.561,4.561,0,0,1-.868.756c-2.977,1.971-5.984,3.9-8.938,5.9a4.343,4.343,0,0,1-4.243.459c-2.355-.876-4.715-1.741-7.089-2.564a7.754,7.754,0,0,0-1.62-.2v1.789h-4.516v-.556h3.882V160.095h-3.881v-.579h4.5v1.45c.743,0,1.442-.037,2.135.013a4.8,4.8,0,0,1,1.4.306c.809.32,1.588.716,2.379,1.081a5.51,5.51,0,0,0,3.528.484,6.771,6.771,0,0,1-1.224-6.4,6.526,6.526,0,0,1,2.628-3.52,6.777,6.777,0,0,1,9.327,9.543Zm-14.886,5.255a1.873,1.873,0,0,1,1.995-1.94c1.626-.012,3.252,0,4.878-.009a3.709,3.709,0,0,0,.845-.1.818.818,0,0,0,.67-1.052,1.332,1.332,0,0,0-1.339-1.126c-1.509-.01-3.019.028-4.526-.021a5.026,5.026,0,0,1-1.643-.359c-.934-.367-1.847-.794-2.741-1.253-1.106-.568-2.252-.2-3.372-.315v7.177a7.825,7.825,0,0,1,1.675.193c2.453.848,4.888,1.749,7.325,2.642a3.609,3.609,0,0,0,3.484-.371c3-2.018,6.044-3.985,9.063-5.981a3.771,3.771,0,0,0,.716-.625.968.968,0,0,0,.243-1.148.927.927,0,0,0-1.06-.587,9.963,9.963,0,0,0-1.958.707c-.8.389-1.527.908-2.317,1.31a10.041,10.041,0,0,1-4.194,1.446c-1.792.054-3.586.045-5.379.058-1.148.008-1.563.3-1.9,1.364-.077,0-.16.015-.242.014A2.18,2.18,0,0,1,541.012,167.728Zm8.917-2.167c1.812-.778,3.612-1.352,4.931-2.822a6.177,6.177,0,0,0-3.075-10.231,6.173,6.173,0,0,0-6.387,9.643,1.409,1.409,0,0,0,1.486.763c.292-.052.607.026.9-.014A2.031,2.031,0,0,1,549.929,165.561Z" transform="translate(0 -22.288)" fill="#ff6330" stroke="#ff6330" stroke-width="1"/>
      <path id="Path_8010" data-name="Path 8010" d="M590.288,121.86A3.281,3.281,0,1,1,587,125.153,3.288,3.288,0,0,1,590.288,121.86Zm.021,5.966a2.686,2.686,0,1,0-2.713-2.713A2.693,2.693,0,0,0,590.31,127.826Z" transform="translate(-41.579 0)" fill="#ff6330" stroke="#ff6330" stroke-width="1"/>
      <path id="Path_8011" data-name="Path 8011" d="M563.633,144.38l-.4.31c-1.719-1.807-3.667-2.328-5.85-.923a4.08,4.08,0,0,0-1.7,4.408c.462,1.864,1.818,2.968,4.053,3.26l.022.493c-1.784.284-3.951-1.291-4.569-3.282a4.834,4.834,0,0,1,2.527-5.791A4.782,4.782,0,0,1,563.633,144.38Z" transform="translate(-17.704 -15.316)" fill="#ff6330" stroke="#ff6330" stroke-width="1"/>
      <path id="Path_8012" data-name="Path 8012" d="M595.649,161.373a2.365,2.365,0,0,1,.353.39c.259.488.518.978.735,1.485a.665.665,0,0,0,.6.435c.549.066,1.1.139,1.641.238a.591.591,0,0,1,.382.252c.04.076-.075.274-.169.371-.408.421-.849.812-1.242,1.245a.8.8,0,0,0-.18.559c.066.581.2,1.154.287,1.732.065.416-.144.583-.521.4-.513-.247-1.018-.512-1.508-.8a.652.652,0,0,0-.74,0c-.464.267-.941.515-1.425.743a.7.7,0,0,1-.5.044c-.076-.032-.093-.3-.073-.447a13.066,13.066,0,0,1,.259-1.535.746.746,0,0,0-.277-.831c-.387-.346-.757-.712-1.115-1.088-.1-.107-.213-.3-.177-.415s.24-.212.385-.238c.56-.1,1.131-.148,1.686-.27l.511-.38c.285-.491.51-1.017.772-1.523A2.411,2.411,0,0,1,595.649,161.373Zm1.73,6.347c-.091-.543-.144-.956-.233-1.362a.855.855,0,0,1,.293-.937c.335-.28.63-.609,1-.975-.572-.089-.847,1.244-1.3,1.213-.357-.024-2.823.433-2.958.13-.185-.414,1.716-2.874,1.47-3.36-.268.537-.459.986-.712,1.4-.1.17,2.589,2.879,2.392,2.927-.474.116-3.881-2.393-4.463-2.3.4.394.708.728,1.049,1.018.267.227,2.3.563,2.236.887-.087.439-2.126.8-2.22,1.348.469-.24.85-.406,1.2-.622a.856.856,0,0,1,1.02-.009C596.508,167.3,596.892,167.465,597.379,167.72Z" transform="translate(-45.282 -29.457)" fill="#ff6330" stroke="#ff6330" stroke-width="1"/>
    </g>
  </g>
</svg>
