<svg xmlns="http://www.w3.org/2000/svg" width="52" height="52" viewBox="0 0 52 52">
  <g id="Group_3274" data-name="Group 3274" transform="translate(-1349 -2501)">
    <g id="Ellipse_12" data-name="Ellipse 12" transform="translate(1349 2501)" fill="none" stroke="#ff6330" stroke-width="1">
      <circle cx="26" cy="26" r="26" stroke="none"/>
      <circle cx="26" cy="26" r="25.5" fill="none"/>
    </g>
    <g id="Group_2410" data-name="Group 2410" transform="translate(1079.1 3289.026)">
      <path id="Path_8013" data-name="Path 8013" d="M289.918-774.022a8.437,8.437,0,0,1,4.882,1.384.342.342,0,0,0,.451,0,8.235,8.235,0,0,1,10.555,1.174,7.773,7.773,0,0,1,2.156,3.547,6.875,6.875,0,0,1,.015,2.952.692.692,0,0,1-.772.581.672.672,0,0,1-.58-.794,5.855,5.855,0,0,0,.018-2.28,4.119,4.119,0,0,0-.328-.975c-1.458-2.662-3.609-4.247-6.746-4.2a6.535,6.535,0,0,0-3.9,1.385c-.537.4-.754.4-1.294,0a6.909,6.909,0,0,0-10.979,4.436,6.912,6.912,0,0,0,2.025,6.266q3.617,3.7,7.224,7.417a1.167,1.167,0,0,1,.3.642.579.579,0,0,1-.426.587.652.652,0,0,1-.72-.142c-.256-.247-.5-.5-.75-.76q-3.333-3.416-6.664-6.833a8.429,8.429,0,0,1-.423-11.507A7.95,7.95,0,0,1,289.918-774.022Z" transform="translate(0 0)" fill="#ff6330" stroke="#ff6330" stroke-width="0.5"/>
      <path id="Path_8014" data-name="Path 8014" d="M454.428-623.951v-4.217c-1.041.319-2.058.63-3.075.942-1.153.354-2.3.718-3.459,1.06a.4.4,0,0,0-.351.458c.015,1.812.012,3.624.006,5.436a2.765,2.765,0,0,1-2.054,2.8,2.753,2.753,0,0,1-3.039-1.181,2.763,2.763,0,0,1,.211-3.255,2.769,2.769,0,0,1,3.169-.779l.323.136v-.368q0-1.731,0-3.462c0-.543.141-.728.658-.887l7.869-2.428c.789-.243,1.149.024,1.149.853q0,3.591,0,7.183a2.768,2.768,0,0,1-2.14,2.829,2.751,2.751,0,0,1-2.967-1.224,2.762,2.762,0,0,1,.2-3.2,2.757,2.757,0,0,1,3.1-.845C454.154-624.06,454.281-624.008,454.428-623.951Zm-9.633,5.294c-.77,0-1.389-2.245-1.384-1.471a1.357,1.357,0,0,0,1.384,1.362,1.358,1.358,0,0,0,1.362-1.384C446.152-620.919,445.568-618.661,444.8-618.656Zm9.648-2.873c0-.764-.607,1.462-1.364,1.47s-1.386-2.218-1.382-1.451a1.372,1.372,0,0,0,1.382,1.371A1.374,1.374,0,0,0,454.443-621.529Z" transform="translate(-146.304 -131.79)" fill="#ff6330" stroke="#ff6330" stroke-width="0.5"/>
    </g>
  </g>
</svg>
