<svg xmlns="http://www.w3.org/2000/svg" width="52" height="52" viewBox="0 0 52 52">
  <g id="Group_3272" data-name="Group 3272" transform="translate(-1408 -2337)">
    <g id="Ellipse_10" data-name="Ellipse 10" transform="translate(1408 2337)" fill="none" stroke="#ff6330" stroke-width="1">
      <circle cx="26" cy="26" r="26" stroke="none"/>
      <circle cx="26" cy="26" r="25.5" fill="none"/>
    </g>
    <g id="_9c6d04f8134fa871dc7cbd8c4939ed81" data-name="9c6d04f8134fa871dc7cbd8c4939ed81" transform="translate(1411 2340.1)">
      <path id="Path_8004" data-name="Path 8004" d="M646.738,488.2h-8.579a.559.559,0,1,0,0,1.117h8.576a.559.559,0,0,0,0-1.117Z" transform="translate(-610.332 -465.14)" fill="#ff6330" stroke="#ff6330" stroke-width="0.7"/>
      <path id="Path_8005" data-name="Path 8005" d="M709.755,337.5h-6.8a.559.559,0,1,0,0,1.117h6.8a.559.559,0,1,0,0-1.117Z" transform="translate(-673.349 -318.586)" fill="#ff6330" stroke="#ff6330" stroke-width="0.7"/>
      <path id="Path_8006" data-name="Path 8006" d="M759.358,187.017H764.6a.559.559,0,1,0,0-1.117h-5.244a.559.559,0,0,0,0,1.117Z" transform="translate(-728.196 -171.157)" fill="#ff6330" stroke="#ff6330" stroke-width="0.7"/>
      <path id="Path_8007" data-name="Path 8007" d="M27.851,18.826a8.926,8.926,0,1,0-14.971,6.548l0,10.112c-.014.165-.047.993.559,1.293a.878.878,0,0,0,.388.091,2,2,0,0,0,1.186-.594l4.237-3.67,4.017,3.888a1.091,1.091,0,0,0,1.156.305c.575-.256.556-1,.55-1.23V25.374a8.9,8.9,0,0,0,2.875-6.548Zm-16.732,0a7.806,7.806,0,1,1,7.806,7.809,7.814,7.814,0,0,1-7.806-7.809ZM23.854,35.5,19.66,31.441a.562.562,0,0,0-.757-.019l-4.628,4.014a3.046,3.046,0,0,1-.275.22.93.93,0,0,1,0-.124v-9.27a8.89,8.89,0,0,0,9.853,0l0,9.239Z" fill="#ff6330" stroke="#ff6330" stroke-width="0.7"/>
      <path id="Path_8008" data-name="Path 8008" d="M122.738,124.2a.561.561,0,0,0,.531.735.563.563,0,0,0,.33-.107l2.958-2.163,2.958,2.163a.561.561,0,0,0,.864-.627l-1.145-3.481,2.972-2.143a.561.561,0,0,0-.327-1.015h0l-3.665.014-1.12-3.489a.561.561,0,0,0-1.068,0l-1.12,3.489-3.662-.014h-.006a.561.561,0,0,0-.327,1.015l2.972,2.143-1.142,3.481Zm.242-5.511,5.792,3.766c.272-.005.669-.024.743-.256l-2.958-6.11.713,2.22a.538.538,0,0,0,.537.388l-3.459,3.319,3.9-1.963a.559.559,0,0,0-.2.63l.729,2.215-1.882-1.376a.562.562,0,0,0-.66,0l-1.882,1.376.729-2.215a.56.56,0,0,0-.2-.63l-1.893-1.365Z" transform="translate(-107.631 -100.944)" fill="#ff6330" stroke="#ff6330" stroke-width="0.7"/>
    </g>
  </g>
</svg>
