<svg xmlns="http://www.w3.org/2000/svg" width="52" height="52" viewBox="0 0 52 52">
  <g id="Group_3270" data-name="Group 3270" transform="translate(-413 -2363)">
    <g id="_11968462021595501287" data-name="11968462021595501287" transform="translate(422 2371.926)">
      <path id="Path_7983" data-name="Path 7983" d="M30.442,13.615a4.469,4.469,0,0,0-2.114-3.066,13.978,13.978,0,0,1-4.546-5.074L23.36,4.63A1.063,1.063,0,0,0,22.2,4.1a.854.854,0,0,0-.74.951v16.7a6.163,6.163,0,0,0-3.171-.846c-2.96,0-5.285,1.9-5.285,4.228s2.326,4.228,5.285,4.228,5.285-1.9,5.285-4.228V8.858a18.2,18.2,0,0,0,3.594,3.383,2.594,2.594,0,0,1,1.163,1.8,2.976,2.976,0,0,1-.423,2.114,1.07,1.07,0,0,0,1.8,1.163A4.685,4.685,0,0,0,30.442,13.615Z" transform="translate(0.628 0)" fill="#ff6330"/>
      <path id="Path_7984" data-name="Path 7984" d="M10.457,25h-7.4a1.057,1.057,0,1,0,0,2.114h7.4a1.057,1.057,0,1,0,0-2.114Z" transform="translate(0 1.195)" fill="#ff6330"/>
      <path id="Path_7985" data-name="Path 7985" d="M10.457,20h-7.4a1.057,1.057,0,0,0,0,2.114h7.4a1.057,1.057,0,0,0,0-2.114Z" transform="translate(0 0.909)" fill="#ff6330"/>
      <path id="Path_7986" data-name="Path 7986" d="M3.057,17.114h14.8a1.057,1.057,0,0,0,0-2.114H3.057a1.057,1.057,0,0,0,0,2.114Z" transform="translate(0 0.624)" fill="#ff6330"/>
      <path id="Path_7987" data-name="Path 7987" d="M3.057,12.114h14.8a1,1,0,0,0,1.057-1.057A1,1,0,0,0,17.856,10H3.057A1,1,0,0,0,2,11.057,1,1,0,0,0,3.057,12.114Z" transform="translate(0 0.338)" fill="#ff6330"/>
      <path id="Path_7988" data-name="Path 7988" d="M3.057,7.114h14.8a1,1,0,0,0,1.057-1.057A1,1,0,0,0,17.856,5H3.057A1,1,0,0,0,2,6.057,1,1,0,0,0,3.057,7.114Z" transform="translate(0 0.053)" fill="#ff6330"/>
    </g>
    <g id="Ellipse_8" data-name="Ellipse 8" transform="translate(413 2363)" fill="none" stroke="#ff6330" stroke-width="1">
      <circle cx="26" cy="26" r="26" stroke="none"/>
      <circle cx="26" cy="26" r="25.5" fill="none"/>
    </g>
  </g>
</svg>
