<svg id="Layer_2" data-name="Layer 2" xmlns="http://www.w3.org/2000/svg" width="56.249" height="61.73" viewBox="0 0 56.249 61.73">
  <g id="Layer_1" data-name="Layer 1">
    <rect id="Rectangle_182" data-name="Rectangle 182" width="44.441" height="58.696" rx="4" transform="translate(1.328 2.043)" fill="#fff"/>
    <path id="Path_9312" data-name="Path 9312" d="M5.18,307.718V304a6.3,6.3,0,0,0,6.3,6.306h32.7a6.3,6.3,0,0,0,6.3-6.306v3.715a6.3,6.3,0,0,1-6.3,6.3h-32.7a6.3,6.3,0,0,1-6.3-6.3Z" transform="translate(-4.311 -253.018)" fill="#e5e5e5"/>
    <path id="Path_9313" data-name="Path 9313" d="M40.007,61.73H7.305A7.319,7.319,0,0,1,0,54.421V7.31A7.319,7.319,0,0,1,7.31,0h32.7a7.319,7.319,0,0,1,7.31,7.31V30.627H45.31V7.31a5.3,5.3,0,0,0-5.3-5.3H7.305a5.3,5.3,0,0,0-5.293,5.3V54.421a5.3,5.3,0,0,0,5.3,5.3h32.7a5.3,5.3,0,0,0,5.3-5.3V36.945h2.012V54.421a7.319,7.319,0,0,1-7.315,7.308Z" fill="#a3a4a4"/>
    <path id="Path_9314" data-name="Path 9314" d="M60.84,82.181V78.908a2.751,2.751,0,0,1,.822-2.21A3.175,3.175,0,0,1,63.8,76a3.609,3.609,0,0,1,2.229.654,2.132,2.132,0,0,1,.87,1.8.927.927,0,0,1-.223.723,1.139,1.139,0,0,1-.741.191q-.951,0-.963-.58a2.884,2.884,0,0,0-.012-.29,1.313,1.313,0,0,0-.074-.29.647.647,0,0,0-.168-.272,1.043,1.043,0,0,0-.335-.179,1.471,1.471,0,0,0-.5-.077q-1.112,0-1.112,1.234v3.272q0,1.236,1.1,1.234t1.112-1.234v-.419h-.735a.5.5,0,0,1-.426-.216.932.932,0,0,1,0-1.038.491.491,0,0,1,.419-.228h2.081a.533.533,0,0,1,.426.179.631.631,0,0,1,.154.426v1.3a2.742,2.742,0,0,1-.827,2.21,3.317,3.317,0,0,1-2.21.7,3.279,3.279,0,0,1-2.2-.7A2.747,2.747,0,0,1,60.84,82.181Z" transform="translate(-50.637 -63.255)" fill="#426572"/>
    <path id="Path_9315" data-name="Path 9315" d="M103.63,84.436V76.569a.5.5,0,0,1,.23-.408.993.993,0,0,1,.605-.168h2.18a3.294,3.294,0,0,1,2.21.7,2.748,2.748,0,0,1,.827,2.21v3.2a2.742,2.742,0,0,1-.827,2.21,3.317,3.317,0,0,1-2.21.7h-2.18a.993.993,0,0,1-.605-.168.5.5,0,0,1-.23-.418Zm1.927-1.1h1.1q1.112,0,1.112-1.234V78.9q0-1.234-1.112-1.234h-1.1Z" transform="translate(-86.251 -63.248)" fill="#426572"/>
    <path id="Path_9316" data-name="Path 9316" d="M147.08,84.423V76.57a.527.527,0,0,1,.2-.408.758.758,0,0,1,.518-.168h2.556a3.134,3.134,0,0,1,2.118.686,2.7,2.7,0,0,1,.8,2.148v.062a2.659,2.659,0,0,1-.839,2.167,3.335,3.335,0,0,1-2.205.7h-1.223v2.668a.48.48,0,0,1-.283.438,1.571,1.571,0,0,1-1.358,0,.48.48,0,0,1-.283-.438Zm1.927-4.149h1.223q1.112,0,1.112-1.234V78.9q0-1.234-1.112-1.234h-1.223Z" transform="translate(-122.414 -63.249)" fill="#426572"/>
    <path id="Path_9317" data-name="Path 9317" d="M189,84.428V76.575a.58.58,0,0,1,.589-.575h2.556q3.039,0,3.039,2.643a2.4,2.4,0,0,1-1.494,2.507l1.509,2.729a.374.374,0,0,1,.062.223.9.9,0,0,1-.389.679,1.271,1.271,0,0,1-.822.32.641.641,0,0,1-.617-.357l-1.692-3.285h-.815v2.977a.48.48,0,0,1-.283.438,1.571,1.571,0,0,1-1.358,0A.48.48,0,0,1,189,84.428Zm1.927-4.458h1.223a.982.982,0,0,0,1.11-1.149,1.162,1.162,0,0,0-.283-.882,1.174,1.174,0,0,0-.832-.263h-1.223Z" transform="translate(-157.304 -63.254)" fill="#426572"/>
    <rect id="Rectangle_183" data-name="Rectangle 183" width="15.429" height="2.012" transform="translate(9.636 27.24)" fill="#426572"/>
    <rect id="Rectangle_184" data-name="Rectangle 184" width="15.429" height="2.012" transform="translate(9.636 32.097)" fill="#426572"/>
    <rect id="Rectangle_185" data-name="Rectangle 185" width="15.429" height="2.012" transform="translate(9.636 36.955)" fill="#426572"/>
    <path id="Path_9318" data-name="Path 9318" d="M233,159.858s8.828-4.414,8.828-11.035V140L233,137.79,224.17,140v8.828C224.172,155.444,233,159.858,233,159.858Z" transform="translate(-186.576 -114.682)" fill="#ff6330"/>
    <path id="Path_9319" data-name="Path 9319" d="M241.834,178.58v3.689c0,6.621-8.828,11.035-8.828,11.035s-8.826-4.414-8.826-11.035V178.58c0,6.621,8.826,11.035,8.826,11.035S241.834,185.2,241.834,178.58Z" transform="translate(-186.584 -148.632)" fill="#dc3e0a"/>
    <path id="Path_9320" data-name="Path 9320" d="M227.971,152.4l-.449-.225c-.382-.191-9.391-4.775-9.391-11.934v-9.613l9.834-2.459,9.834,2.459v9.613c0,7.161-9,11.739-9.391,11.934Zm-7.82-20.2v8.05c0,5.115,6.093,8.915,7.82,9.894,1.726-.976,7.822-4.788,7.822-9.894V132.2l-7.822-1.955Z" transform="translate(-181.549 -106.676)" fill="#a3a4a4"/>
    <path id="Path_9321" data-name="Path 9321" d="M247.118,153.174l2.6-.5,1.786-.347c.195-.037.4-.062.589-.114.3-.081.168.064-.029-.039a4.782,4.782,0,0,0,.948.267l1.8.5,2.6.733a.5.5,0,0,0,.268-.971L255,151.948a17.894,17.894,0,0,0-2.683-.755,10.114,10.114,0,0,0-2.705.471l-2.762.535c-.636.122-.366,1.093.268.971Z" transform="translate(-205.151 -125.826)" fill="#f9f9f9"/>
    <g id="Group_3170" data-name="Group 3170" transform="translate(5.887 5.023)" opacity="0.5">
      <path id="Path_9322" data-name="Path 9322" d="M35.587,30.956h5.831a.5.5,0,0,0,0-1.006H35.587A.5.5,0,0,0,35.587,30.956Z" transform="translate(-35.101 -29.95)" fill="#7490a8"/>
      <path id="Path_9323" data-name="Path 9323" d="M84.757,30.956H99.237a.5.5,0,0,0,0-1.006H84.757A.5.5,0,0,0,84.757,30.956Z" transform="translate(-76.025 -29.95)" fill="#7490a8"/>
    </g>
  </g>
</svg>
