<svg xmlns="http://www.w3.org/2000/svg" width="47.857" height="59.821" viewBox="0 0 47.857 59.821">
  <g id="gui-privacy-svgrepo-com" transform="translate(-2.4 -1.2)">
    <path id="Path_9324" data-name="Path 9324" d="M19.155,1.2A15,15,0,0,0,4.2,16.155v5.982h5.982V16.155a8.973,8.973,0,1,1,17.946,0v5.982h5.982V16.155A15,15,0,0,0,19.155,1.2Z" transform="translate(7.173 0)" fill="#a3a4a4"/>
    <path id="Path_9325" data-name="Path 9325" d="M44.275,44.284H8.382A6,6,0,0,1,2.4,38.3V11.382A6,6,0,0,1,8.382,5.4H44.275a6,6,0,0,1,5.982,5.982V38.3A6,6,0,0,1,44.275,44.284Z" transform="translate(0 16.737)" fill="#ff6330"/>
    <circle id="Ellipse_69" data-name="Ellipse 69" cx="8.973" cy="8.973" r="8.973" transform="translate(17.355 32.606)" fill="#efebe9"/>
    <circle id="Ellipse_70" data-name="Ellipse 70" cx="4.487" cy="4.487" r="4.487" transform="translate(21.842 37.093)" fill="#1e88e5"/>
    <circle id="Ellipse_71" data-name="Ellipse 71" cx="1.496" cy="1.496" r="1.496" transform="translate(27.824 37.093)" fill="#fff"/>
  </g>
</svg>
