<svg xmlns="http://www.w3.org/2000/svg" width="50.728" height="59.299" viewBox="0 0 50.728 59.299">
  <g id="shield-user-privacy-user-protection-user-shield-webpage-svgrepo-com" transform="translate(-11.468 -8)">
    <path id="Path_9309" data-name="Path 9309" d="M57.822,45.667S53.066,58.688,36.833,67.3c-16.245-8.611-21-21.632-21-21.632a57.2,57.2,0,0,1-3.842-29.514C31.805,14.634,36.833,8,36.833,8s5.016,6.634,24.844,8.154A57.132,57.132,0,0,1,57.822,45.667Z" transform="translate(0)" fill="#ff6330"/>
    <path id="Path_9310" data-name="Path 9310" d="M20,50.055A49.925,49.925,0,0,0,34.825,61.89,49.893,49.893,0,0,0,49.65,50.055V30.98H20Z" transform="translate(2.008 5.409)" fill="#c43b0e"/>
    <circle id="Ellipse_66" data-name="Ellipse 66" cx="14.825" cy="14.825" r="14.825" transform="translate(22.008 21.565)" fill="#fff"/>
    <circle id="Ellipse_67" data-name="Ellipse 67" cx="12.354" cy="12.354" r="12.354" transform="translate(24.479 24.035)" fill="#e8ae05"/>
    <g id="Group_3166" data-name="Group 3166" transform="translate(30.038 29.125)">
      <g id="Group_3165" data-name="Group 3165">
        <circle id="Ellipse_68" data-name="Ellipse 68" cx="4.324" cy="4.324" r="4.324" transform="translate(2.471)" fill="#fff"/>
        <path id="Path_9311" data-name="Path 9311" d="M40.089,36.588a3.619,3.619,0,0,0-4.732-3.336,6.786,6.786,0,0,1-4.126,0A3.619,3.619,0,0,0,26.5,36.588V40.8a12.282,12.282,0,0,0,13.589,0V36.588Z" transform="translate(-26.5 -23.221)" fill="#f6af62"/>
      </g>
    </g>
  </g>
</svg>
