<svg xmlns="http://www.w3.org/2000/svg" width="23.369" height="23.368" viewBox="0 0 23.369 23.368">
  <path id="Icon_awesome-linkedin-in" data-name="Icon awesome-linkedin-in" d="M5.231,23.369H.386V7.767H5.231ZM2.806,5.639A2.819,2.819,0,1,1,5.612,2.807,2.83,2.83,0,0,1,2.806,5.639Zm20.558,17.73H18.529V15.774c0-1.81-.037-4.131-2.519-4.131-2.519,0-2.9,1.967-2.9,4v7.725H8.266V7.767h4.647V9.9h.068a5.091,5.091,0,0,1,4.584-2.519c4.9,0,5.8,3.229,5.8,7.423v8.57Z" transform="translate(0 -0.001)" fill="#fff"/>
</svg>
