<svg xmlns="http://www.w3.org/2000/svg" width="16" height="16" viewBox="0 0 16 16">
  <path id="Union_2" data-name="Union 2" d="M-3443.85-1333a2.153,2.153,0,0,1-2.15-2.15v-7.4a2.137,2.137,0,0,1,.824-1.692c.71-.557,1.314-1.02,4.642-3.435.069-.051.155-.117.255-.194a4.247,4.247,0,0,1,2.268-1.124h.024a4.247,4.247,0,0,1,2.268,1.124c.1.077.186.144.256.2,3.326,2.414,3.93,2.878,4.64,3.434a2.137,2.137,0,0,1,.823,1.692v7.4a2.152,2.152,0,0,1-2.149,2.15Zm5.342-14.179a9.123,9.123,0,0,0-.793.569c-.1.081-.2.158-.293.222-3.306,2.4-3.9,2.856-4.6,3.4a.548.548,0,0,0-.211.433v7.4a.551.551,0,0,0,.55.55h11.7a.55.55,0,0,0,.55-.55v-7.4a.547.547,0,0,0-.21-.433c-.7-.545-1.291-1-4.6-3.4-.09-.066-.189-.142-.294-.223a9.13,9.13,0,0,0-.793-.569,1.251,1.251,0,0,0-.5-.221h-.024A1.269,1.269,0,0,0-3438.508-1347.179Zm.508,10.279h-.011a4.571,4.571,0,0,1-2.539-1.2c-.1-.079-.2-.153-.281-.213-.759-.551-1.1-1.093-.96-1.525a.631.631,0,0,1,.637-.418,2.477,2.477,0,0,1,1.324.569c.085.062.182.137.284.217a3.878,3.878,0,0,0,1.535.873h.022a3.881,3.881,0,0,0,1.535-.873c.1-.079.2-.154.283-.215a2.476,2.476,0,0,1,1.324-.569.63.63,0,0,1,.637.418c.14.433-.2.975-.96,1.526-.082.06-.179.135-.281.213a4.565,4.565,0,0,1-2.538,1.2Zm-2.359-2.062c.091.067.192.145.3.228a4,4,0,0,0,2.05,1.035h.022a4,4,0,0,0,2.049-1.035c.106-.082.207-.161.3-.227a3.251,3.251,0,0,0,.458-.395,3.18,3.18,0,0,0-.518.314c-.074.055-.162.122-.264.2a3.988,3.988,0,0,1-2.024,1.041h-.022a3.984,3.984,0,0,1-2.023-1.041c-.1-.076-.191-.147-.267-.2a3.138,3.138,0,0,0-.517-.314A3.191,3.191,0,0,0-3440.359-1338.962Z" transform="translate(3446 1349)" fill="#fff" opacity="0.6"/>
</svg>
