<svg xmlns="http://www.w3.org/2000/svg" width="19.855" height="25.807" viewBox="0 0 19.855 25.807">
  <path id="Icon_awesome-pinterest-p" data-name="Icon awesome-pinterest-p" d="M10.548.457C5.243.457,0,3.994,0,9.718c0,3.64,2.048,5.708,3.289,5.708C3.8,15.426,4.1,14,4.1,13.6c0-.481-1.225-1.5-1.225-3.506a6.988,6.988,0,0,1,7.26-7.1c3.521,0,6.127,2,6.127,5.677,0,2.746-1.1,7.9-4.669,7.9A2.3,2.3,0,0,1,9.2,14.294c0-1.954,1.365-3.847,1.365-5.863,0-3.423-4.855-2.8-4.855,1.334a6.075,6.075,0,0,0,.5,2.621C5.491,15.457,4.033,20.033,4.033,23.2c0,.977.14,1.939.233,2.916.176.2.088.176.357.078,2.606-3.568,2.513-4.266,3.692-8.935A4.194,4.194,0,0,0,11.9,19.118c5.491,0,7.958-5.352,7.958-10.176C19.855,3.808,15.419.457,10.548.457Z" transform="translate(0 -0.457)" fill="#fff"/>
</svg>
