<svg xmlns="http://www.w3.org/2000/svg" xmlns:xlink="http://www.w3.org/1999/xlink" width="419.981" height="372.667" viewBox="0 0 419.981 372.667">
  <defs>
    <linearGradient id="linear-gradient" x1="0.046" y1="0.198" x2="1.61" y2="0.927" gradientUnits="objectBoundingBox">
      <stop offset="0" stop-color="#ff6f00"/>
      <stop offset="1" stop-color="#ff6330" stop-opacity="0"/>
    </linearGradient>
  </defs>
  <g id="Padlock_Icon" data-name="Padlock Icon" transform="translate(85.615)">
    <g id="Group_2697" data-name="Group 2697" transform="translate(-85.615 0)">
      <g id="Group_2686" data-name="Group 2686">
        <path id="Path_9226" data-name="Path 9226" d="M195.374,36.119,78.536,94.725a23.69,23.69,0,0,0-14.4,21.8v54.652A253.667,253.667,0,0,0,105.8,311.106c21.045,32.067,48.956,73.057,95.4,96.487H222.16c51.7-15.766,90.287-57.8,113.878-93.743A253.653,253.653,0,0,0,377.7,173.917v-57.4a23.688,23.688,0,0,0-14.405-21.8L230.2,38.015C224.272,35.489,201.308,33.593,195.374,36.119Z" transform="translate(42.279 -34.926)" fill="#ff725e"/>
        <path id="Path_9227" data-name="Path 9227" d="M195.374,36.119,78.536,94.725a23.69,23.69,0,0,0-14.4,21.8v54.652A253.667,253.667,0,0,0,105.8,311.106c21.045,32.067,48.956,73.057,95.4,96.487H222.16c51.7-15.766,90.287-57.8,113.878-93.743A253.653,253.653,0,0,0,377.7,173.917v-57.4a23.688,23.688,0,0,0-14.405-21.8L230.2,38.015C224.272,35.489,201.308,33.593,195.374,36.119Z" transform="translate(42.279 -34.926)" fill="#852302" opacity="0.57"/>
        <g id="User_Icon" data-name="User Icon" transform="translate(0 138.552)" opacity="0.73">
          <g id="Group_2637" data-name="Group 2637">
            <path id="Path_9206" data-name="Path 9206" d="M103.886,179.528,42.513,210.312a12.449,12.449,0,0,0-7.567,11.448v28.709a133.242,133.242,0,0,0,21.886,73.5c11.054,16.844,25.716,38.373,50.111,50.681h11.01c27.156-8.281,47.426-30.358,59.819-49.241a133.234,133.234,0,0,0,21.884-73.5V221.76a12.447,12.447,0,0,0-7.565-11.448l-69.913-29.787C119.064,179.2,107,178.2,103.886,179.528Z" transform="translate(-23.936 -178.9)" fill="#ff725e"/>
            <path id="Path_9207" data-name="Path 9207" d="M103.886,179.528,42.513,210.312a12.449,12.449,0,0,0-7.567,11.448v28.709a133.242,133.242,0,0,0,21.886,73.5c11.054,16.844,25.716,38.373,50.111,50.681h11.01c27.156-8.281,47.426-30.358,59.819-49.241a133.234,133.234,0,0,0,21.884-73.5V221.76a12.447,12.447,0,0,0-7.565-11.448l-69.913-29.787C119.064,179.2,107,178.2,103.886,179.528Z" transform="translate(-23.936 -178.9)" fill="#c2bcba"/>
            <path id="Path_9208" data-name="Path 9208" d="M106.921,180.21,37.008,210a12.447,12.447,0,0,0-7.565,11.448v28.709a134.412,134.412,0,0,0,83.008,124.186c27.154-8.281,47.426-30.358,59.819-49.241a133.251,133.251,0,0,0,21.884-73.5v-30.15A12.449,12.449,0,0,0,186.587,210L116.676,180.21A12.438,12.438,0,0,0,106.921,180.21Z" transform="translate(-29.443 -178.587)" fill="#fff"/>
            <g id="Group_2634" data-name="Group 2634" transform="translate(23.056 29.821)">
              <circle id="Ellipse_63" data-name="Ellipse 63" cx="45.829" cy="45.829" r="45.829" transform="matrix(0.932, -0.362, 0.362, 0.932, 0, 33.141)" opacity="0.06"/>
              <circle id="Ellipse_64" data-name="Ellipse 64" cx="19.026" cy="19.026" r="19.026" transform="translate(40.272 23.775)" fill="#ff6330"/>
              <path id="Path_9209" data-name="Path 9209" d="M53.238,248.943s8.857-21.132,34.047-21.132,35.448,21.132,35.448,21.132S111.5,265.543,86.639,264.9C64.134,264.319,53.238,248.943,53.238,248.943Z" transform="translate(-28.686 -159.773)" fill="#ff6330"/>
            </g>
            <g id="Group_2635" data-name="Group 2635" transform="translate(36.006 42.895)">
              <path id="Path_9210" data-name="Path 9210" d="M139.616,246.564a3.982,3.982,0,0,1-.09-.74c-.04-.542-.094-1.26-.162-2.173-.032-.482-.066-1.016-.106-1.6-.064-.584-.194-1.218-.3-1.909a33.585,33.585,0,0,0-.97-4.718,43.794,43.794,0,0,0-5.1-12.113,45.416,45.416,0,0,0-54.549-19.337,41.563,41.563,0,0,0-11.468,6.176,51.033,51.033,0,0,0-5.14,4.372,51.35,51.35,0,0,0-4.44,5.256,43.862,43.862,0,0,0-6.474,12.485,44.906,44.906,0,0,0,0,28.595,43.9,43.9,0,0,0,6.476,12.491,51.294,51.294,0,0,0,4.44,5.256,51.045,51.045,0,0,0,5.14,4.374,41.692,41.692,0,0,0,11.47,6.178,45.535,45.535,0,0,0,54.549-19.339,43.8,43.8,0,0,0,5.1-12.113,33.58,33.58,0,0,0,.97-4.718c.106-.69.236-1.325.3-1.909.04-.584.074-1.116.106-1.6l.162-2.173a4.03,4.03,0,0,1,.09-.742,3.823,3.823,0,0,1,.016.744c-.014.544-.034,1.266-.058,2.183-.016.486-.036,1.024-.056,1.611-.05.592-.162,1.232-.252,1.929a32.405,32.405,0,0,1-.886,4.772,43.369,43.369,0,0,1-4.99,12.313,46.145,46.145,0,0,1-31.062,21.89,46.338,46.338,0,0,1-24.315-1.947,42.6,42.6,0,0,1-11.734-6.28,51.8,51.8,0,0,1-5.262-4.462,52.2,52.2,0,0,1-4.548-5.364,44.77,44.77,0,0,1-6.637-12.767,45.874,45.874,0,0,1,0-29.251,44.836,44.836,0,0,1,6.637-12.761,52.229,52.229,0,0,1,4.548-5.364,52.023,52.023,0,0,1,5.262-4.46,42.479,42.479,0,0,1,11.732-6.278,46.331,46.331,0,0,1,24.313-1.949,46.156,46.156,0,0,1,31.064,21.89,43.323,43.323,0,0,1,4.99,12.313,32.4,32.4,0,0,1,.886,4.772c.09.7.2,1.339.252,1.929l.056,1.611c.024.918.044,1.641.058,2.185A3.791,3.791,0,0,1,139.616,246.564Z" transform="translate(-47.439 -200.34)" fill="#263238"/>
            </g>
            <g id="Group_2636" data-name="Group 2636" transform="translate(113.188 65.234)">
              <path id="Path_9211" data-name="Path 9211" d="M137.312,211.505a6.2,6.2,0,0,1,.128,1.321c.042.978.1,2.239.164,3.8.064,1.651.16,3.675.044,6.022q-.051,1.771-.11,3.761c-.014,1.335-.1,2.741-.258,4.212-.282,2.945-.48,6.186-1.088,9.618-.278,1.717-.5,3.507-.852,5.326q-.585,2.722-1.2,5.594a137.95,137.95,0,0,1-8.063,24.133,141.849,141.849,0,0,1-12.537,22.15c-2.329,3.149-4.476,6.192-6.781,8.807-1.13,1.323-2.161,2.655-3.265,3.831l-3.191,3.379c-1.981,2.2-4.016,3.951-5.712,5.574s-3.243,2.929-4.536,3.963l-2.961,2.389a6.221,6.221,0,0,1-1.076.778,6.458,6.458,0,0,1,.944-.94l2.829-2.535c1.246-1.076,2.759-2.409,4.4-4.079s3.641-3.435,5.576-5.658q1.5-1.63,3.123-3.4c1.084-1.186,2.091-2.523,3.2-3.849,2.263-2.623,4.368-5.664,6.659-8.805a146.393,146.393,0,0,0,12.373-22.026,141.932,141.932,0,0,0,8.081-23.929q.633-2.845,1.234-5.548c.37-1.8.6-3.579.9-5.284.64-3.4.878-6.623,1.206-9.548q.276-2.194.33-4.186l.19-3.743c.17-2.335.134-4.352.134-6,.012-1.563.022-2.823.03-3.8A6.5,6.5,0,0,1,137.312,211.505Z" transform="translate(-86.015 -211.505)" fill="#263238"/>
            </g>
          </g>
        </g>
        <path id="Path_9228" data-name="Path 9228" d="M204.145,37.247,71.05,93.958a23.69,23.69,0,0,0-14.4,21.8v54.652A253.667,253.667,0,0,0,98.309,310.338c23.593,35.949,60.124,72.961,116.365,96.488,51.7-15.766,90.287-57.8,113.878-93.743A253.654,253.654,0,0,0,370.216,173.15v-57.4a23.688,23.688,0,0,0-14.405-21.8L222.717,37.247A23.706,23.706,0,0,0,204.145,37.247Z" transform="translate(28.801 -34.159)" fill="#ff6330"/>
        <g id="Group_2685" data-name="Group 2685" transform="translate(300.935 124.188)">
          <path id="Path_9229" data-name="Path 9229" d="M231.25,79.273a2.122,2.122,0,0,1,.087.636c.028.512.062,1.129.1,1.882q.1,2.667.263,7.236c.106,3.145.272,7,.039,11.462q-.109,3.36-.23,7.158c-.042,1.266-.087,2.571-.132,3.907q-.185,2-.378,4.1c-.549,5.6-.935,11.764-2.1,18.289-.535,3.268-.955,6.671-1.635,10.132q-1.118,5.175-2.3,10.636a263.407,263.407,0,0,1-15.352,45.893,271.8,271.8,0,0,1-23.826,42.14c-4.425,5.99-8.5,11.784-12.879,16.763-2.148,2.52-4.1,5.057-6.2,7.3s-4.122,4.383-6.054,6.438c-3.761,4.195-7.623,7.533-10.843,10.63-1.641,1.518-3.12,2.982-4.57,4.231l-4.03,3.344-5.6,4.587-1.479,1.165a2.148,2.148,0,0,1-.535.356c-.017-.02.132-.179.44-.473.378-.347.834-.764,1.389-1.274q2-1.769,5.419-4.789l3.934-3.433c1.423-1.274,2.868-2.767,4.478-4.307,3.156-3.145,6.956-6.522,10.653-10.748q2.852-3.1,5.962-6.475c2.067-2.254,3.991-4.8,6.108-7.323,4.318-4.99,8.34-10.782,12.711-16.763a277.934,277.934,0,0,0,23.6-41.964,269.328,269.328,0,0,0,15.377-45.61q1.2-5.423,2.344-10.571c.7-3.439,1.14-6.822,1.7-10.07,1.213-6.488,1.655-12.619,2.268-18.194q.218-2.092.428-4.083.092-2,.182-3.893.181-3.776.342-7.13c.311-4.45.227-8.292.21-11.431q0-4.562.008-7.233l.039-1.882A2.227,2.227,0,0,1,231.25,79.273Z" transform="translate(-133.597 -79.273)" fill="#263238"/>
        </g>
        <path id="Path_12524" data-name="Path 12524" d="M156.783,1.2C156.583,2.2,76.6,319.309,76.6,319.309S-7.089,240.025-.238,124.525c-.092,0,0-40.272,0-40.272S-4.1,64.033,24.175,55.637C24.135,55.65,151.441,1.2,151.441,1.2S156.983.187,156.783,1.2Z" transform="translate(85.45 -0.001)" opacity="0.35" fill="url(#linear-gradient)"/>
      </g>
      <g id="Group_2696" data-name="Group 2696" transform="translate(183.483 73.216)">
        <g id="Group_2695" data-name="Group 2695">
          <g id="Group_2694" data-name="Group 2694">
            <g id="Group_2688" data-name="Group 2688" transform="translate(17.132)">
              <g id="Group_2687" data-name="Group 2687">
                <path id="Path_9230" data-name="Path 9230" d="M192.113,185.5H177.92V108.241a32.977,32.977,0,0,0-65.955,0V185.5H97.773V108.241a47.17,47.17,0,0,1,94.34,0Z" transform="translate(-97.773 -61.071)" fill="#f5f5f5"/>
              </g>
            </g>
            <g id="Group_2692" data-name="Group 2692" transform="translate(0 71.253)">
              <g id="Group_2691" data-name="Group 2691">
                <g id="Group_2690" data-name="Group 2690">
                  <rect id="Rectangle_180" data-name="Rectangle 180" width="127.139" height="99.645" rx="13" transform="translate(0.732 0.729)" fill="#fff"/>
                  <g id="Group_2689" data-name="Group 2689">
                    <path id="Path_9231" data-name="Path 9231" d="M203.253,186.889a28.46,28.46,0,0,0,4.231-.728,16.136,16.136,0,0,0,11.694-15.677c-.02-3.279-.039-6.839-.059-10.658-.034-7.662-.07-16.368-.109-25.985s-.1-20.152-.146-31.448a15.651,15.651,0,0,0-9.236-13.139,18.736,18.736,0,0,0-8.712-1.353q-4.65.008-9.423.014c-25.467.02-53.448.039-82.824.059a15.693,15.693,0,0,0-9.689,3.391,15.537,15.537,0,0,0-5.433,8.552,20.222,20.222,0,0,0-.437,5.142l0,5.307q0,5.284-.006,10.482c-.017,13.851-.031,27.214-.045,39.948.266,6.318-1.056,12.848,2.207,17.847a15.761,15.761,0,0,0,14.17,7.642c11.316.031,21.86.062,31.493.09l45.6.232c5.321.059,9.482.1,12.4.137,1.358.028,2.425.053,3.223.07a6.143,6.143,0,0,1,1.1.076,6.144,6.144,0,0,1-1.1.076c-.8.017-1.865.042-3.223.07-2.918.034-7.079.078-12.4.137l-45.6.232c-9.633.028-20.177.056-31.493.09a16.974,16.974,0,0,1-17.7-17.27q-.008-4.654-.014-9.429c-.014-12.733-.028-26.1-.045-39.948q0-5.2-.006-10.482l0-5.307a21.7,21.7,0,0,1,.473-5.475,16.961,16.961,0,0,1,5.937-9.356,17.135,17.135,0,0,1,10.6-3.713c29.376.02,57.358.039,82.824.059q4.772,0,9.423.014a20.038,20.038,0,0,1,9.236,1.5,16.88,16.88,0,0,1,9.916,14.223c.1,11.4-.022,21.888-.028,31.535-.039,9.617-.076,18.323-.106,25.985-.022,3.82-.042,7.379-.062,10.658a16.629,16.629,0,0,1-2.456,8.676,16.141,16.141,0,0,1-9.854,7.287A12.844,12.844,0,0,1,203.253,186.889Z" transform="translate(-91.655 -86.515)" fill="#263238"/>
                  </g>
                </g>
              </g>
            </g>
            <g id="Group_2693" data-name="Group 2693" transform="translate(50.118 100.657)">
              <path id="Path_9232" data-name="Path 9232" d="M133.493,120.76A13.8,13.8,0,0,0,137.52,111a13.984,13.984,0,1,0-17.8,13.389l-3,13.288h13.31l-2.674-13.288a14.111,14.111,0,0,0,6.141-3.627" transform="translate(-109.552 -97.015)" fill="#ff725e"/>
            </g>
          </g>
        </g>
      </g>
    </g>
  </g>
</svg>
