<svg xmlns="http://www.w3.org/2000/svg" xmlns:xlink="http://www.w3.org/1999/xlink" width="427.531" height="412.19" viewBox="0 0 427.531 412.19">
  <defs>
    <linearGradient id="linear-gradient" x1="0.5" x2="0.5" y2="1" gradientUnits="objectBoundingBox">
      <stop offset="0" stop-color="#ff6330"/>
      <stop offset="1" stop-color="#803218"/>
    </linearGradient>
    <filter id="Rectangle_126" x="0" y="356.19" width="360" height="56" filterUnits="userSpaceOnUse">
      <feOffset dy="3" input="SourceAlpha"/>
      <feGaussianBlur stdDeviation="5" result="blur"/>
      <feFlood flood-opacity="0.161"/>
      <feComposite operator="in" in2="blur"/>
      <feComposite in="SourceGraphic"/>
    </filter>
  </defs>
  <g id="Group_3203" data-name="Group 3203" transform="translate(-1230.143 -1999.394)">
    <path id="Path_12529" data-name="Path 12529" d="M1274.842,2379.852,1599.7,2384l33.978-356.345-287.562,153.311Z" opacity="0.48"/>
    <g transform="matrix(1, 0, 0, 1, 1230.14, 1999.39)" filter="url(#Rectangle_126)">
      <rect id="Rectangle_126-2" data-name="Rectangle 126" width="330" height="26" rx="3" transform="translate(15 368.19)" fill="url(#linear-gradient)"/>
    </g>
    <g id="Group_3206" data-name="Group 3206" transform="translate(1206.548 1999.941)">
      <g id="Group_3205" data-name="Group 3205" transform="translate(71.861 19.519)">
        <path id="Path_9334" data-name="Path 9334" d="M2015.039,668.815l-4.131,16.567h-31.733l6.532-24.184a15.153,15.153,0,0,1,14.629-11.2h0A15.153,15.153,0,0,1,2015.039,668.815Z" transform="translate(-1641.032 -649.996)" fill="#a0c0ef"/>
        <path id="Path_9346" data-name="Path 9346" d="M1000.985,999.466h259.972L1348.089,650h-245.2a18.908,18.908,0,0,0-18.347,14.334Z" transform="translate(-1000.985 -649.996)" fill="#fff"/>
        <g id="Group_3175" data-name="Group 3175" transform="translate(62.97 34.468)">
          <g id="Group_3174" data-name="Group 3174" transform="translate(15.552 0)">
            <path id="Path_9347" data-name="Path 9347" d="M1260.646,1098.5h172.217a5.319,5.319,0,0,0,4.848-3.881l.363-1.455a2.939,2.939,0,0,0-2.914-3.881H1262.945a5.319,5.319,0,0,0-4.849,3.881l-.363,1.455A2.939,2.939,0,0,0,1260.646,1098.5Z" transform="translate(-1247.425 -971.897)" fill="#a0c0ef"/>
            <path id="Path_9348" data-name="Path 9348" d="M1304.969,920.731h172.217a5.32,5.32,0,0,0,4.849-3.881l.362-1.455a2.939,2.939,0,0,0-2.913-3.881H1307.267a5.32,5.32,0,0,0-4.849,3.881l-.363,1.455A2.939,2.939,0,0,0,1304.969,920.731Z" transform="translate(-1276.426 -855.58)" fill="#a0c0ef"/>
            <path id="Path_9349" data-name="Path 9349" d="M1315.64,866.264h172.217a5.319,5.319,0,0,0,4.849-3.881l.363-1.455a2.939,2.939,0,0,0-2.913-3.881H1317.938a5.319,5.319,0,0,0-4.849,3.881l-.363,1.455A2.939,2.939,0,0,0,1315.64,866.264Z" transform="translate(-1283.408 -819.941)" fill="#a0c0ef"/>
            <path id="Path_9350" data-name="Path 9350" d="M1333.179,810.423H1505.4a5.32,5.32,0,0,0,4.849-3.881l.363-1.455a2.939,2.939,0,0,0-2.914-3.881H1335.477a5.319,5.319,0,0,0-4.849,3.881l-.363,1.455A2.939,2.939,0,0,0,1333.179,810.423Z" transform="translate(-1294.884 -783.403)" fill="#a0c0ef"/>
            <path id="Path_9351" data-name="Path 9351" d="M1348.248,758.922h172.217a5.32,5.32,0,0,0,4.849-3.881l.363-1.455a2.939,2.939,0,0,0-2.913-3.881H1350.546a5.319,5.319,0,0,0-4.849,3.881l-.363,1.455A2.939,2.939,0,0,0,1348.248,758.922Z" transform="translate(-1304.744 -749.705)" fill="#a0c0ef"/>
            <path id="Path_9352" data-name="Path 9352" d="M1289.573,982.483H1461.79a5.319,5.319,0,0,0,4.849-3.881l.363-1.455a2.939,2.939,0,0,0-2.914-3.881H1291.871a5.32,5.32,0,0,0-4.849,3.881l-.363,1.455A2.939,2.939,0,0,0,1289.573,982.483Z" transform="translate(-1266.352 -895.985)" fill="#a0c0ef"/>
            <path id="Path_9353" data-name="Path 9353" d="M1275.11,1040.492h172.217a5.32,5.32,0,0,0,4.849-3.881l.363-1.455a2.939,2.939,0,0,0-2.914-3.881H1277.408a5.319,5.319,0,0,0-4.849,3.881l-.363,1.455A2.938,2.938,0,0,0,1275.11,1040.492Z" transform="translate(-1256.889 -933.941)" fill="#a0c0ef"/>
            <path id="Path_9354" data-name="Path 9354" d="M1231.169,1216.724h172.217a5.321,5.321,0,0,0,4.849-3.881l.363-1.455a2.939,2.939,0,0,0-2.914-3.881H1233.467a5.32,5.32,0,0,0-4.849,3.881l-.363,1.455A2.94,2.94,0,0,0,1231.169,1216.724Z" transform="translate(-1228.137 -1049.253)" fill="#a0c0ef"/>
            <path id="Path_9355" data-name="Path 9355" d="M1245.633,1158.716H1417.85a5.32,5.32,0,0,0,4.849-3.882l.363-1.455a2.939,2.939,0,0,0-2.913-3.881H1247.931a5.32,5.32,0,0,0-4.849,3.881l-.363,1.455A2.939,2.939,0,0,0,1245.633,1158.716Z" transform="translate(-1237.601 -1011.297)" fill="#a0c0ef"/>
          </g>
          <path id="Path_9356" data-name="Path 9356" d="M1186.748,1399.017h41.828a6.317,6.317,0,0,0,5.758-4.609h0a3.49,3.49,0,0,0-3.46-4.608h-41.828a6.318,6.318,0,0,0-5.758,4.608h0A3.49,3.49,0,0,0,1186.748,1399.017Z" transform="translate(-1183.147 -1168.531)" fill="#a0c0ef"/>
          <path id="Path_9357" data-name="Path 9357" d="M1557.435,1399.017h41.829a6.316,6.316,0,0,0,5.758-4.609h0a3.49,3.49,0,0,0-3.459-4.608h-41.828a6.317,6.317,0,0,0-5.758,4.608h0A3.49,3.49,0,0,0,1557.435,1399.017Z" transform="translate(-1425.695 -1168.531)" fill="#a0c0ef"/>
        </g>
        <g id="Group_3176" data-name="Group 3176" transform="translate(36.713 284.672)">
          <path id="Path_9358" data-name="Path 9358" d="M1173.029,1503.391h-61a4.765,4.765,0,0,1-3.867-1.758,5.049,5.049,0,0,1-.785-4.425l4.4-17.638a8.3,8.3,0,0,1,7.584-6.066h61a4.763,4.763,0,0,1,3.866,1.758,5.05,5.05,0,0,1,.785,4.426l-4.4,17.637A8.3,8.3,0,0,1,1173.029,1503.391Zm-53.67-29.4a7.784,7.784,0,0,0-7.108,5.694l-4.4,17.637a4.572,4.572,0,0,0,.7,4.006,4.285,4.285,0,0,0,3.481,1.57h61a7.783,7.783,0,0,0,7.108-5.694l4.4-17.638a4.57,4.57,0,0,0-.7-4.006,4.282,4.282,0,0,0-3.48-1.57Z" transform="translate(-1107.189 -1473.504)" fill="#476ba7"/>
        </g>
        <g id="Group_3177" data-name="Group 3177" transform="translate(165.071 284.672)">
          <path id="Path_9359" data-name="Path 9359" d="M1544.345,1503.391h-61a4.764,4.764,0,0,1-3.867-1.758,5.048,5.048,0,0,1-.785-4.425l4.4-17.638a8.3,8.3,0,0,1,7.583-6.066h61a4.766,4.766,0,0,1,3.867,1.758,5.049,5.049,0,0,1,.784,4.426l-4.4,17.637A8.3,8.3,0,0,1,1544.345,1503.391Zm-53.67-29.4a7.784,7.784,0,0,0-7.108,5.694l-4.4,17.637a4.571,4.571,0,0,0,.7,4.006,4.285,4.285,0,0,0,3.481,1.57h61a7.785,7.785,0,0,0,7.108-5.694l4.4-17.638a4.568,4.568,0,0,0-.7-4.006,4.281,4.281,0,0,0-3.48-1.57Z" transform="translate(-1478.506 -1473.504)" fill="#476ba7"/>
        </g>
        <path id="Path_9360" data-name="Path 9360" d="M1589.867,1466.544q-13.9,5.743-27.589,12.55.54-1.533.973-3.069c.23-.822-.878-1.37-1.564-.464a14.685,14.685,0,0,1-.967,1.148c.231-.736-.638-1.146-1.383-.608-.05.036-.094.074-.141.112.361-.989-1.179-1.138-1.751-.18l-.856,1.431a6.006,6.006,0,0,1-2.761,1.844,4.683,4.683,0,0,1-.406-1.537.683.683,0,0,0-.712-.652c-.016-.5-.47-.8-1.141-.5a6.279,6.279,0,0,0-2.1,1.549c-.457-.853-1.923-.242-2.709.577.022-.047.045-.092.067-.138.371-.792-.318-1.7-1.246-.9a11.217,11.217,0,0,0-3.411,5,19.418,19.418,0,0,1-1.745,1.72c-.3.261-1.717,1.571-2.042,1.456-.308-.108-.145-.921-.006-1.493l.152-.211c1.175-1.635,6.843-9.339,2.849-9.27a1.431,1.431,0,0,0-1.11.677,26.541,26.541,0,0,0-3.272,6.973c-.131.453-.314,1.037-.462,1.649q-.173.234-.35.467c-1.586,2.079-3.778,5.078-6.349,6.1-.237-3.257,1.406-7.111,2.648-10.527q.8-2.211,1.675-4.417a1.239,1.239,0,0,0,.553-.288c2.777-2.337,3.911-5.8,2.653-8.132-.363-.672-1.469-.061-1.787.652q-2.868,6.433-5.2,12.914c-1.372,3.828-2.932,7.873-2.36,11.406.06.373.5.512.9.423,2.931-.639,5.484-3.247,7.54-5.848a1.222,1.222,0,0,0,.8.709c1.364.4,3.227-1.112,4.567-2.381a5.314,5.314,0,0,0,.24,1.288c.144.448.609.548,1.153.331a10.625,10.625,0,0,0,3.451-2.307,7.439,7.439,0,0,0,3.452-2.77,18.315,18.315,0,0,0,1.7-1.7,2.606,2.606,0,0,0,.474.867c.5.57,1.757.054,2.559-.313a8.457,8.457,0,0,0,2.108-1.385,4.186,4.186,0,0,0,1.452-.395,1.184,1.184,0,0,0,.343.359,1.5,1.5,0,0,0,1.675-.158c-.132.372-.266.744-.408,1.116q-1.994,1.006-3.983,2.033c-.875.452-1.081,1.792-.1,1.717l3.654-.278a1.452,1.452,0,0,0,1.223-.922c.215-.488.421-.975.619-1.463q14.288-7.161,28.838-13.176C1591.512,1467.623,1591.1,1466.034,1589.867,1466.544Zm-42.452,14.018a5.907,5.907,0,0,1-.3.761c-.083.173-.175.343-.272.51A6.492,6.492,0,0,1,1547.415,1480.562Zm-2.682,2.284a2.277,2.277,0,0,0-.031,1.388,8.34,8.34,0,0,1-.914.6,5.25,5.25,0,0,1,.1-1.7c.423-.5.819-1.013,1.188-1.539A9.126,9.126,0,0,0,1544.733,1482.846Z" transform="translate(-1345.748 -1184.213)" fill="#365da2"/>
        <g id="Group_3178" data-name="Group 3178" transform="translate(52.173 276.244)">
          <path id="Path_9361" data-name="Path 9361" d="M1173.369,1449.535c-3.28,6.1-5.12,12.353-7.785,18.521a49.478,49.478,0,0,1-4.814,8.848c-1.384,1.977-4.4,6.274-6.955,5.343-.637-.232-.814-.778-.607-1.522.046-.164.1-.333.16-.5a1.411,1.411,0,0,0,1.325-.155,4.759,4.759,0,0,0,1.886-2.1c.383-.829.321-1.693-.347-2.061a1.881,1.881,0,0,0-2.081.585,6.949,6.949,0,0,0-1.333,2.36,7.3,7.3,0,0,0-.9,2.964c.093,1.408,1.612,1.907,3.1,1.581,1.8-.4,3.4-1.972,4.617-3.406a39.64,39.64,0,0,0,3.783-5.335,73.927,73.927,0,0,0,5.278-11.484,112.635,112.635,0,0,1,5.675-13.334C1174.754,1449.122,1173.756,1448.815,1173.369,1449.535Zm-17.757,27.679c.111.431-.305,1-.647,1.393a2.272,2.272,0,0,1-.389.383,1.347,1.347,0,0,1-.276.165.41.41,0,0,0-.087.021.371.371,0,0,0-.345-.193c.144-.323.294-.642.438-.946C1154.521,1477.585,1155.378,1476.31,1155.612,1477.214Z" transform="translate(-1151.913 -1449.124)" fill="#365da2"/>
          <path id="Path_9362" data-name="Path 9362" d="M1220.1,1502.372a7.311,7.311,0,0,1-2.083.865,1.98,1.98,0,0,1-.532.016,3.281,3.281,0,0,0,1.028-1.615c.123-.884-.851-1.088-1.676-.633a2.537,2.537,0,0,0-1.262,1.906,1.3,1.3,0,0,0,.1.628,4.62,4.62,0,0,1-2.689,1.08,9.776,9.776,0,0,0,2.474-2.445.509.509,0,0,0,.035-.555,1.627,1.627,0,0,0-2.082-.16,4.171,4.171,0,0,0-1.788,2.152,3.068,3.068,0,0,0-.229.788,6.2,6.2,0,0,1-2.643.6v-.016q.416-.385.817-.784c.4-.4.162-.808-.211-.858a1.7,1.7,0,0,0-1.7,1.33,25.412,25.412,0,0,1-4.19,3.034c-.372.213-.874.646-1.121.372a13.106,13.106,0,0,0,1.7-1.5c1.007-1.062,2-2.96.812-3.616a.7.7,0,0,0-.847.2l-1.571,2.087a9.11,9.11,0,0,0-1.208,1.874,2.427,2.427,0,0,0-.171.656,11.4,11.4,0,0,1-1.661.858l-.143.059q.464-.369.924-.743a3.826,3.826,0,0,0,1.7-2.514,2.819,2.819,0,0,0-1.1-2.1c-.15-.148-.5-.076-.72.089a11.3,11.3,0,0,0-3.725,4.783,1.867,1.867,0,0,0-.053,1.567q-2.238,1.706-4.528,3.333c-.162.115-.554.474-.714.42s-.086-.4-.087-.554a10.959,10.959,0,0,1,.073-1.281,12.693,12.693,0,0,1,.7-2.864,15.511,15.511,0,0,1,1.163-2.475.61.61,0,0,0,.639-.118,3.9,3.9,0,0,0,1.608-3.308c-.039-.4-.683-.342-.985,0-2.843,3.23-4.536,7.231-4.385,10.708.033.768.382,1.413,1.409.984a7.407,7.407,0,0,0,1.333-.854q.836-.6,1.666-1.2,1.56-1.141,3.1-2.318a5.3,5.3,0,0,0,1.836-.412,12.523,12.523,0,0,0,2.117-1.012,1.059,1.059,0,0,0,1.112.528,5.875,5.875,0,0,0,1.856-.937c.619-.374,1.229-.769,1.822-1.193q.864-.617,1.678-1.3c.125.174.342.226.716.236a6.318,6.318,0,0,0,1.566-.169,8.265,8.265,0,0,0,1.69-.6,1.07,1.07,0,0,0,.277.192,3.046,3.046,0,0,0,2.287-.141,8.622,8.622,0,0,0,2.151-1.21,2.089,2.089,0,0,0,.629.168,6.285,6.285,0,0,0,3.334-1.027C1221.1,1502.962,1220.848,1501.975,1220.1,1502.372Zm-22.318,5.169a9.8,9.8,0,0,1,2.375-2.949,1.327,1.327,0,0,1,.23,1.855,7.163,7.163,0,0,1-1.23,1.086q-.7.562-1.415,1.117c-.124.1-.249.192-.373.287C1197.2,1508.612,1197.6,1507.888,1197.779,1507.541Zm6.409-3.007a4.7,4.7,0,0,1-1.227,1.755c-.076.074-.153.146-.231.218C1203.156,1505.837,1203.678,1505.181,1204.188,1504.534Zm9.968-2.26a7.537,7.537,0,0,1-1.455,1.366C1213,1502.984,1213.693,1502.237,1214.156,1502.273Zm2.738-.032c.069-.115.394-.478.341-.229a1.983,1.983,0,0,1-.463.572A.884.884,0,0,1,1216.894,1502.241Z" transform="translate(-1176.676 -1482.917)" fill="#365da2"/>
        </g>
      </g>
      <g id="Group_3203-2" data-name="Group 3203" transform="translate(71.861 51.786)">
        <path id="Path_9327" data-name="Path 9327" d="M868.331,383.493l-75.739,12.861,49.54-35.726,2.858,10.956,18.577,2.858Z" transform="translate(-792.592 -341.574)" fill="#c83c0e"/>
        <path id="Path_9328" data-name="Path 9328" d="M792.592,394.734l62.4-34.3,61.925-4.763Z" transform="translate(-792.592 -339.954)" fill="#ff6330"/>
        <path id="Path_9329" data-name="Path 9329" d="M842.132,351.37,792.592,387.1l37.632-54.78Z" transform="translate(-792.592 -332.317)" fill="#ff6330"/>
      </g>
      <g id="Group_3204" data-name="Group 3204" transform="translate(328.477 265.323)">
        <path id="Path_9330" data-name="Path 9330" d="M410.952,652.4l36.822,14.184-21.3-23.029-2.554,5.225-9.644-.452Z" transform="translate(-389.157 -634.266)" fill="#d14415"/>
        <path id="Path_9331" data-name="Path 9331" d="M406.52,649l-27.925-23.618-30.692-8.7Z" transform="translate(-347.903 -616.681)" fill="#ff6330"/>
        <path id="Path_9332" data-name="Path 9332" d="M455.841,627.693l21.3,23.029-13.37-31.409Z" transform="translate(-418.528 -618.403)" fill="#ff6330"/>
      </g>
      <path id="Path_12526" data-name="Path 12526" d="M1294.732,2328.942s11.6-75.413-14.088-95.3-53.276,74.822,27.347,49.723c30.556-9.513,30.178-76.958,71.27-77.07,38.127-.1,47.662,35.348,84.528,55.523,15.854,8.676,45.417-3.412,67.954,0,16.444,2.49,30.662,27.347,30.662,27.347" transform="translate(-1206.548 -2021.128)" fill="none" stroke="#cec3c3" stroke-width="1" stroke-dasharray="2"/>
      <path id="Path_12527" data-name="Path 12527" d="M1625.716,2019.46s-55.523-28.21-86.708-16.8-28.9,35.748-59.327,38.79-32.7-17.494-61.608,0-67.458,29.088-67.458,29.088" transform="translate(-1218.389 -1999.942)" fill="none" stroke="#d1cccc" stroke-width="1" stroke-dasharray="2"/>
    </g>
    <path id="Path_12528" data-name="Path 12528" d="M1661.229,2021.208h13.484s-14.129.076-18.935,25.968-6.67-11.117-6.67-11.117,4.232-9.181,4.3-9.468S1661.229,2021.208,1661.229,2021.208Z" transform="translate(-36.375 -1.748)" fill="#fff"/>
  </g>
</svg>
