<svg xmlns="http://www.w3.org/2000/svg" width="43.544" height="54.429" viewBox="0 0 43.544 54.429">
  <g id="policy-analyzer-svgrepo-com" transform="translate(-4.125 -2.25)">
    <path id="Path_9376" data-name="Path 9376" d="M36.944,29.922l10.725,4.865v7.3a15.714,15.714,0,0,1-2.288,8.088h0l-3.455-3.527A6.184,6.184,0,0,0,41.162,39a5.877,5.877,0,0,0-8.425,0,6.175,6.175,0,0,0,0,8.6,5.86,5.86,0,0,0,7.5.779h0l3.718,3.795a13.468,13.468,0,0,1-7.007,4.512C30.8,55.147,26.22,48.835,26.22,42.084h0v-7.3Zm.1-27.672.38.016a4.441,4.441,0,0,1,4,4.041l.018.406.014,23.3-4.417-2.008,0-21.292H8.581V42.426l16.1,0,.005.163a17.752,17.752,0,0,0,.711,4.3H8.559a4.452,4.452,0,0,1-4.418-4.08l-.016-.384L4.147,6.714A4.459,4.459,0,0,1,8.2,2.266l.383-.016Zm-.1,44.7A3.65,3.65,0,1,0,33.369,43.3,3.612,3.612,0,0,0,36.944,46.949Z" transform="translate(0)" fill="#fff"/>
    <rect id="Rectangle_199" data-name="Rectangle 199" width="20" height="4" transform="translate(11.896 11.679)" fill="#ffba50"/>
    <rect id="Rectangle_200" data-name="Rectangle 200" width="16" height="4" transform="translate(11.896 19.679)" fill="#ffba50"/>
    <rect id="Rectangle_201" data-name="Rectangle 201" width="11" height="4" transform="translate(11.896 27.679)" fill="#ffba50"/>
  </g>
</svg>
