<svg xmlns="http://www.w3.org/2000/svg" width="55.999" height="56.071" viewBox="0 0 55.999 56.071">
  <g id="speech-bubble-svgrepo-com" transform="translate(-0.179)">
    <path id="Path_9364" data-name="Path 9364" d="M25.271,114.032H6.565a6.37,6.37,0,0,0-6.386,6.353v15.183a6.372,6.372,0,0,0,6.386,6.357h5.187c.03-.011,5.6,5.453,5.87,5.364.014-.014.056-5.364-.005-5.364h7.654a6.368,6.368,0,0,0,6.385-6.357V120.385A6.369,6.369,0,0,0,25.271,114.032Z" transform="translate(0 -91.219)" fill="#fff"/>
    <path id="Path_9365" data-name="Path 9365" d="M126.859,0H102.9a6.383,6.383,0,0,0-6.383,6.386v18.76a6.383,6.383,0,0,0,6.383,6.383h11.155c-.061,0-.018,5.378,0,5.392.268.089,5.838-5.4,5.868-5.392h6.94a6.382,6.382,0,0,0,6.385-6.383V6.386A6.384,6.384,0,0,0,126.859,0Z" transform="translate(-77.064)" fill="#2494bc"/>
    <path id="Path_9366" data-name="Path 9366" d="M134.015,70.173a2.626,2.626,0,1,0,2.626,2.626A2.627,2.627,0,0,0,134.015,70.173Zm8.753,0a2.626,2.626,0,1,0,2.626,2.626A2.627,2.627,0,0,0,142.768,70.173Zm8.753,0a2.626,2.626,0,1,0,2.626,2.626A2.627,2.627,0,0,0,151.522,70.173Z" transform="translate(-104.961 -56.135)" fill="#fff"/>
  </g>
</svg>
