<svg xmlns="http://www.w3.org/2000/svg" width="56" height="56" viewBox="0 0 56 56">
  <g id="curved-arrow-svgrepo-com" transform="translate(-0.351 -0.35)">
    <circle id="Ellipse_72" data-name="Ellipse 72" cx="28" cy="28" r="28" transform="translate(0.351 0.35)" fill="#fff"/>
    <path id="Path_9389" data-name="Path 9389" d="M120.27,64.472l-9.7-6.218a.722.722,0,0,0-.914.056.755.755,0,0,0-.346.664v4.053a18.376,18.376,0,0,0-17.593,18.1c-.193,10.008,8.409,17.94,18.127,18.127,3.033.059,3.027-4.642,0-4.7A13.592,13.592,0,0,1,96.417,81.131c-.14-7.247,5.9-12.993,12.892-13.4v3.681a.847.847,0,0,0,1.265.73l9.7-6.218A.85.85,0,0,0,120.27,64.472Z" transform="translate(-80.736 -51.163)" fill="#ffba50"/>
  </g>
</svg>
