<svg xmlns="http://www.w3.org/2000/svg" width="43.06" height="53.576" viewBox="0 0 43.06 53.576">
  <g id="privacy-hand-svgrepo-com" transform="translate(-40.036 1)">
    <path id="Path_9373" data-name="Path 9373" d="M71.234,16.6V30.65a1.36,1.36,0,1,1-2.72,0v-20.4a2.72,2.72,0,0,0-5.439,0v20.4a1.36,1.36,0,1,1-2.72,0V14.333a2.266,2.266,0,1,0-4.533,0v18.13a1.36,1.36,0,0,1-2.72,0V21.132a2.244,2.244,0,0,0-2.266-2.266h0a2.244,2.244,0,0,0-2.266,2.266V45.7c.725,10.969,6.8,13.507,15.23,13.507A15.594,15.594,0,0,0,77.58,51.591c1.088-1.722,7.433-11.6,7.977-12.691a12.681,12.681,0,0,1,2.72-3.626,5.913,5.913,0,0,0,1.45-1.9c.091-.181.363-2.357-1.269-2.357a8.013,8.013,0,0,0-4.261,1.45,14.6,14.6,0,0,0-4.533,4.986A2.765,2.765,0,0,1,77.4,38.9c-.906,0-.635-.453-.725-2.266V16.6a2.72,2.72,0,1,0-5.439,0" transform="translate(-7.628 -7.627)" fill="#e9a844"/>
    <path id="Path_9374" data-name="Path 9374" d="M85.334,34.916a8.013,8.013,0,0,0-4.261,1.45,14.6,14.6,0,0,0-4.533,4.986,2.765,2.765,0,0,1-2.266,1.45c-.906,0-.635-.453-.725-2.266V20.412a2.613,2.613,0,0,0-1.45-2.357c-.272.272-.544.453-.816.725-.091.091-.181.091-.272.181-.181,2.176-.635,4.351-.725,6.527-.091,2.9,0,5.8,0,8.7a1,1,0,0,1-1.994,0c0-2.9-.091-5.8,0-8.7a29.659,29.659,0,0,1,.363-3.989,1.543,1.543,0,0,1-.635.091V34.554a1.36,1.36,0,1,1-2.72,0V14.066A2.835,2.835,0,0,0,64.121,11.8a.925.925,0,0,1-.453.725,13.25,13.25,0,0,0-1.178.816.333.333,0,0,1-.091.272,9.2,9.2,0,0,0-.544,2.266.83.83,0,0,1,.635.906c0,2.72-.816,5.349-.453,8.068a.932.932,0,0,1-.635,1.088,60.642,60.642,0,0,1,.635,8.159,1,1,0,0,1-1.994,0v-.544a.333.333,0,0,1-.272-.091v.816a1.36,1.36,0,1,1-2.72,0V17.964a2.229,2.229,0,0,0-1.269-1.994,9.707,9.707,0,0,0-1.269,1.45,13.434,13.434,0,0,1,0,4.261c.906,4.986.544,9.881.544,14.776a1,1,0,0,1-1.994,0c0-3.535.272-7.252,0-10.878A.471.471,0,0,1,52.7,25.4V36.276a1.36,1.36,0,1,1-2.72,0V24.945c0-1.269.363-2.266-.906-2.266h0c-1.269,0-.906,1-.906,2.266V49.511c.725,10.969,7.977,13.507,12.51,13.507A15.594,15.594,0,0,0,74.456,55.4c1.088-1.722,7.433-11.6,7.977-12.691a12.681,12.681,0,0,1,2.72-3.626,5.913,5.913,0,0,0,1.45-1.9c.091-.091.363-2.266-1.269-2.266" transform="translate(-7.224 -11.44)" fill="#ffbd57"/>
    <path id="Path_9375" data-name="Path 9375" d="M56.172,52.576c-7.524,0-15.23-1.722-16.136-14.414V13.5a3.173,3.173,0,0,1,6.346,0V24.836a.453.453,0,1,0,.907,0V6.705a3.173,3.173,0,0,1,6.346,0V23.023a.453.453,0,1,0,.907,0V2.626a3.626,3.626,0,1,1,7.252,0v20.4a.453.453,0,1,0,.907,0V8.972a3.626,3.626,0,0,1,7.252,0V30.366a2.088,2.088,0,0,0,1.36-1,16.874,16.874,0,0,1,4.8-5.349,8.809,8.809,0,0,1,4.714-1.541,2.365,2.365,0,0,1,1.9,1,3.644,3.644,0,0,1,.181,2.72,7.208,7.208,0,0,1-1.632,2.176,11.564,11.564,0,0,0-2.538,3.354c-.363.635-2.72,4.442-5.53,8.884-1.088,1.813-2.085,3.264-2.448,3.807A16.491,16.491,0,0,1,56.172,52.576ZM43.209,12.145a1.394,1.394,0,0,0-1.36,1.36V38.071c.635,8.975,4.8,12.691,14.323,12.691a14.705,14.705,0,0,0,12.963-7.071c.363-.635,1.36-2.085,2.448-3.9,2.085-3.263,5.167-8.068,5.53-8.7a12.6,12.6,0,0,1,2.992-3.9,5.311,5.311,0,0,0,1.178-1.541,2.3,2.3,0,0,0-.181-1.088.4.4,0,0,0-.272-.091h0a6.559,6.559,0,0,0-3.717,1.269,14.851,14.851,0,0,0-4.261,4.714,3.524,3.524,0,0,1-3.082,1.9A1.522,1.522,0,0,1,68.592,32c-.453-.453-.453-1-.453-1.813V8.972a1.813,1.813,0,1,0-3.626,0V23.023a2.266,2.266,0,1,1-4.533,0V2.626a1.813,1.813,0,1,0-3.626,0v20.4a2.266,2.266,0,1,1-4.533,0V6.706a1.36,1.36,0,1,0-2.72,0v18.13a2.266,2.266,0,0,1-4.533,0V13.5A1.394,1.394,0,0,0,43.209,12.145Z" fill="#fff"/>
  </g>
</svg>
