<svg xmlns="http://www.w3.org/2000/svg" width="44.597" height="56.887" viewBox="0 0 44.597 56.887">
  <g id="antivirus-cyberspace-firewall-information-password-privacy-shield-2-svgrepo-com" transform="translate(-13.2 -8.002)">
    <path id="Path_9367" data-name="Path 9367" d="M55.284,14.354,36.637,8.189a3.6,3.6,0,0,0-2.288,0L15.7,14.354a3.656,3.656,0,0,0-2.5,3.462V41.05a15.836,15.836,0,0,0,6.07,12.459L32.5,63.858a4.877,4.877,0,0,0,6,0l13.23-10.349A15.836,15.836,0,0,0,57.8,41.05V17.815A3.683,3.683,0,0,0,55.284,14.354Z" transform="translate(0)" fill="#fff"/>
    <path id="Path_9368" data-name="Path 9368" d="M17.19,48.368a12.42,12.42,0,0,0,1.328,1.162l13.23,10.349a4.877,4.877,0,0,0,6,0L50.976,49.53c.462-.367.9-.759,1.328-1.162V29.46H17.19Z" transform="translate(0.74 3.979)" fill="#dcdcdc"/>
    <path id="Path_9369" data-name="Path 9369" d="M52.3,17.849V40.3a11.019,11.019,0,0,1-4.244,8.725L34.83,59.375l-.083.036c-.047,0-.071-.024-.071-.036L21.434,49.026A11.019,11.019,0,0,1,17.19,40.3V17.849L34.747,12.04Z" transform="translate(0.74 0.749)" fill="#2494bc"/>
    <g id="Group_3184" data-name="Group 3184" transform="translate(19.85 19.498)">
      <g id="Group_3182" data-name="Group 3182" transform="translate(10.669)">
        <path id="Path_9370" data-name="Path 9370" d="M30.7,47.1a2.9,2.9,0,0,1-2.893-2.893v-.984a.818.818,0,1,1,1.636,0v.984a1.257,1.257,0,1,0,2.513,0V18.518a.818.818,0,1,1,1.636,0V44.207A2.889,2.889,0,0,1,30.7,47.1Z" transform="translate(-27.81 -17.7)" fill="#fff"/>
      </g>
      <g id="Group_3183" data-name="Group 3183" transform="translate(0 1.814)">
        <path id="Path_9371" data-name="Path 9371" d="M22.378,30.646A4.452,4.452,0,0,1,26.4,33.207a4.434,4.434,0,0,1,8.037,0,4.434,4.434,0,0,1,8.037,0,4.437,4.437,0,0,1,7.6-.747,15.847,15.847,0,0,0-31.261.012A4.411,4.411,0,0,1,22.378,30.646Z" transform="translate(-18.81 -19.23)" fill="#db3c09"/>
      </g>
    </g>
  </g>
</svg>
