<svg xmlns="http://www.w3.org/2000/svg" width="56.745" height="56.745" viewBox="0 0 56.745 56.745">
  <g id="policy-term-and-condition-term-svgrepo-com" transform="translate(-5.651 -5.651)">
    <path id="Path_9378" data-name="Path 9378" d="M42.2,62.245H39.169a3.745,3.745,0,0,0-3.7-3.293h-.039a2.91,2.91,0,0,0-2.9-2.818H17.35a2.91,2.91,0,0,0-2.9,2.82h-.039a3.744,3.744,0,0,0-3.7,3.291H7.683A2.183,2.183,0,0,1,5.5,60.063V7.683A2.183,2.183,0,0,1,7.683,5.5H42.2a2.183,2.183,0,0,1,2.183,2.183V25.4a2.41,2.41,0,0,0-1.574.7l-.953.954a2.425,2.425,0,0,0,0,3.432l.052.054L30.963,41.481l-.054-.052a2.428,2.428,0,0,0-3.432,0l-.953.954a2.426,2.426,0,0,0,0,3.432L37.365,56.661a2.427,2.427,0,0,0,3.434,0l.953-.953a2.433,2.433,0,0,0,0-3.434l-.052-.052,2.683-2.683V60.063A2.183,2.183,0,0,1,42.2,62.245Z" transform="translate(0.151 0.151)" fill="#fff"/>
    <path id="Path_9379" data-name="Path 9379" d="M11.09,13.216H34.362a.728.728,0,1,0,0-1.455H11.09a.728.728,0,1,0,0,1.455Z" transform="translate(2.364 3)" fill="#231f20"/>
    <path id="Path_9380" data-name="Path 9380" d="M11.09,18.762H34.362a.728.728,0,1,0,0-1.455H11.09a.728.728,0,1,0,0,1.455Z" transform="translate(2.364 5.523)" fill="#231f20"/>
    <path id="Path_9381" data-name="Path 9381" d="M11.09,24.309H34.362a.728.728,0,1,0,0-1.455H11.09a.728.728,0,1,0,0,1.455Z" transform="translate(2.364 8.047)" fill="#231f20"/>
    <path id="Path_9382" data-name="Path 9382" d="M11.09,29.855h13.4a.728.728,0,1,0,0-1.455H11.09a.728.728,0,1,0,0,1.455Z" transform="translate(2.364 10.571)" fill="#231f20"/>
    <path id="Path_9383" data-name="Path 9383" d="M22.6,33.946H11.09a.728.728,0,1,0,0,1.455H22.6a.728.728,0,1,0,0-1.455Z" transform="translate(2.364 13.094)" fill="#231f20"/>
    <rect id="Rectangle_193" data-name="Rectangle 193" width="15.483" height="12.279" transform="translate(32.136 42.663) rotate(-45)" fill="#ff8e5a"/>
    <path id="Path_9384" data-name="Path 9384" d="M33.914,41.835a.973.973,0,0,1,0,1.376l-.953.953a1,1,0,0,1-1.376,0L20.74,33.317a.972.972,0,0,1,0-1.375l.953-.954a.975.975,0,0,1,1.375,0Z" transform="translate(6.956 11.619)" fill="#ffba50"/>
    <path id="Path_9385" data-name="Path 9385" d="M44.454,31.3a.976.976,0,0,1,0,1.376l-.954.953a.975.975,0,0,1-1.376,0L31.279,22.779a.972.972,0,0,1,0-1.375l.953-.954a.975.975,0,0,1,1.375,0Z" transform="translate(11.751 6.824)" fill="#ffba50"/>
    <path id="Path_9386" data-name="Path 9386" d="M33.381,43.237a2.3,2.3,0,0,1,2.249,1.838H10.08a2.3,2.3,0,0,1,2.249-1.838Z" transform="translate(2.235 17.322)" fill="#ff8e5a"/>
    <path id="Path_9387" data-name="Path 9387" d="M12.659,42.664A1.442,1.442,0,0,1,14.092,41.3H29.269A1.443,1.443,0,0,1,30.7,42.664Z" transform="translate(3.409 16.44)" fill="#ff8e5a"/>
    <path id="Path_9388" data-name="Path 9388" d="M48.913,48.913a1.922,1.922,0,0,1-1.413.677,1.96,1.96,0,0,1-1.372-.717L33.315,35.291l1.976-1.976L48.872,46.128a1.966,1.966,0,0,1,.717,1.372A2.046,2.046,0,0,1,48.913,48.913Z" transform="translate(12.807 12.807)" fill="#ffba50"/>
  </g>
</svg>
