<svg xmlns="http://www.w3.org/2000/svg" width="27.072" height="21.988" viewBox="0 0 27.072 21.988">
  <path id="Icon_awesome-twitter" data-name="Icon awesome-twitter" d="M24.289,8.86c.017.24.017.481.017.721A15.678,15.678,0,0,1,8.52,25.368,15.679,15.679,0,0,1,0,22.878a11.478,11.478,0,0,0,1.34.069,11.112,11.112,0,0,0,6.888-2.371A5.558,5.558,0,0,1,3.04,16.728a7,7,0,0,0,1.048.086,5.868,5.868,0,0,0,1.46-.189A5.549,5.549,0,0,1,1.1,11.179v-.069a5.588,5.588,0,0,0,2.508.7A5.557,5.557,0,0,1,1.89,4.394,15.771,15.771,0,0,0,13.33,10.2a6.263,6.263,0,0,1-.137-1.271,5.554,5.554,0,0,1,9.6-3.8,10.924,10.924,0,0,0,3.521-1.34,5.533,5.533,0,0,1-2.439,3.058,11.123,11.123,0,0,0,3.2-.859A11.927,11.927,0,0,1,24.289,8.86Z" transform="translate(0 -3.381)" fill="#fff"/>
</svg>
