<svg xmlns="http://www.w3.org/2000/svg" width="27.851" height="19.583" viewBox="0 0 27.851 19.583">
  <path id="Icon_awesome-youtube" data-name="Icon awesome-youtube" d="M28.319,7.564a3.5,3.5,0,0,0-2.462-2.478C23.685,4.5,14.976,4.5,14.976,4.5s-8.709,0-10.881.586A3.5,3.5,0,0,0,1.632,7.564a36.712,36.712,0,0,0-.582,6.747,36.712,36.712,0,0,0,.582,6.747A3.447,3.447,0,0,0,4.094,23.5c2.172.586,10.881.586,10.881.586s8.709,0,10.881-.586a3.447,3.447,0,0,0,2.462-2.439,36.712,36.712,0,0,0,.582-6.747,36.712,36.712,0,0,0-.582-6.747ZM12.127,18.452V10.17l7.279,4.141-7.279,4.141Z" transform="translate(-1.05 -4.5)" fill="#fff"/>
</svg>
